<?xml version="1.0" encoding="UTF-8" standalone="no"?>
<svg
   xmlns:dc="http://purl.org/dc/elements/1.1/"
   xmlns:cc="http://creativecommons.org/ns#"
   xmlns:rdf="http://www.w3.org/1999/02/22-rdf-syntax-ns#"
   xmlns:svg="http://www.w3.org/2000/svg"
   xmlns="http://www.w3.org/2000/svg"
   xmlns:sodipodi="http://sodipodi.sourceforge.net/DTD/sodipodi-0.dtd"
   xmlns:inkscape="http://www.inkscape.org/namespaces/inkscape"
   id="af24c1d2-8586-4e6b-81b3-4cf1a6f0777f"
   data-name="Layer 1"
   width="515.04712"
   height="436.7952"
   viewBox="0 0 515.04713 436.79521"
   version="1.1"
   sodipodi:docname="hero-image.svg"
   inkscape:version="1.0.1 (3bc2e813f5, 2020-09-07)">
  <metadata
     id="metadata89">
    <rdf:RDF>
      <cc:Work
         rdf:about="">
        <dc:format>image/svg+xml</dc:format>
        <dc:type
           rdf:resource="http://purl.org/dc/dcmitype/StillImage" />
        <dc:title>shared_workspace</dc:title>
      </cc:Work>
    </rdf:RDF>
  </metadata>
  <defs
     id="defs87" />
  <sodipodi:namedview
     pagecolor="#ffffff"
     bordercolor="#666666"
     borderopacity="1"
     objecttolerance="10"
     gridtolerance="10"
     guidetolerance="10"
     inkscape:pageopacity="0"
     inkscape:pageshadow="2"
     inkscape:window-width="1920"
     inkscape:window-height="1017"
     id="namedview85"
     showgrid="false"
     inkscape:zoom="1.0833343"
     inkscape:cx="266.92365"
     inkscape:cy="218.3976"
     inkscape:window-x="1912"
     inkscape:window-y="-8"
     inkscape:window-maximized="1"
     inkscape:current-layer="af24c1d2-8586-4e6b-81b3-4cf1a6f0777f"
     inkscape:document-rotation="0"
     fit-margin-top="0"
     fit-margin-left="0"
     fit-margin-right="0"
     fit-margin-bottom="0" />
  <title
     id="title2">shared_workspace</title>
  <path
     d="m 42.639167,363.13609 c 14.37595,15.42642 15.119,38.1 15.119,38.1 0,0 -22.565,-2.33763 -36.94091,-17.764 -14.3759104,-15.42637 -15.1190004,-38.1 -15.1190004,-38.1 0,0 22.5649504,2.33758 36.9409104,17.764 z"
     fill="#bd92cc"
     id="path4"
     inkscape:export-xdpi="96"
     inkscape:export-ydpi="96" />
  <path
     d="m 87.896187,387.215 c -15.42642,14.376 -38.1,15.119 -38.1,15.119 0,0 2.33763,-22.56495 17.764,-36.94091 15.42637,-14.37596 38.100003,-15.119 38.100003,-15.119 0,0 -2.33753,22.56491 -17.764003,36.94091 z"
     fill="#bd92cc"
     id="path6"
     inkscape:export-xdpi="96"
     inkscape:export-ydpi="96" />
  <path
     d="m 84.062227,433 h -56.73914 a 5.8034,5.8034 0 0 1 -5.21862,-3.26461 L 9.7510166,404.34219 A 5.8034,5.8034 0 0 1 14.969657,396 h 81.446 a 5.8034,5.8034 0 0 1 5.218623,8.34219 l -12.353453,25.3932 A 5.8034,5.8034 0 0 1 84.062227,433 Z"
     fill="#3f3d56"
     id="path8"
     inkscape:export-xdpi="96"
     inkscape:export-ydpi="96" />
  <circle
     cx="338.87469"
     cy="76.069794"
     r="47.243511"
     fill="#ffb8b8"
     id="circle10"
     inkscape:export-xdpi="96"
     inkscape:export-ydpi="96" />
  <path
     d="m 303.61316,99.691547 c 0,0 8.90094,67.099513 -4.7928,74.631003 -13.69374,7.53149 81.47795,8.21627 81.47795,8.21627 0,0 -21.22534,-58.19851 -11.63973,-76.00045 z"
     fill="#ffb8b8"
     id="path12"
     inkscape:export-xdpi="96"
     inkscape:export-ydpi="96" />
  <path
     d="m 449.79342,182.87826 -7.915,36.04167 -16.73591,76.25281 -0.50113,4.176 -5.77572,48.34458 -3.84186,32.11625 -2.57625,21.5736 c -15.663,8.04992 -27.01516,13.60716 -27.01516,13.60716 0,0 -0.97654,-4.89549 -2.55056,-11.15941 -10.99237,3.29579 -31.33243,8.76307 -48.56947,9.85521 6.27678,6.99633 9.16139,13.56862 5.24883,18.41917 -11.8083,14.62221 -60.55768,-16.01 -77.60838,-27.43277 a 46.15393,46.15393 0 0 0 -0.44973,8.26194 l -13.04823,-10.03512 1.29134,-23.08978 2.17793,-39.0676 2.73686,-48.99351 a 51.43841,51.43841 0 0 1 -2.16511,-6.44379 c -3.996,-14.21107 -8.84656,-42.58827 -12.56639,-66.38474 -2.99381,-19.15154 -5.2424,-35.33494 -5.71781,-38.77849 -0.0643,-0.44972 -0.0964,-0.681 -0.0964,-0.681 l 72.231,-31.91713 c 5.13324,11.90468 29.10318,15.48315 29.10318,15.48315 19.85822,-1.36843 35.42486,-11.84041 35.42486,-11.84041 z"
     fill="#d0cde1"
     id="path14"
     inkscape:export-xdpi="96"
     inkscape:export-ydpi="96" />
  <path
     d="m 390.91254,401.29965 c 0,0 -3.05809,1.0472 -8.03067,2.53127 -10.99237,3.29579 -31.33243,8.76307 -48.56947,9.85521 -14.8407,0.95086 -27.38137,-1.33627 -29.67493,-11.01805 -0.983,-4.16313 0.41118,-7.58738 3.45,-10.40133 9.07144,-8.40973 32.76513,-11.42284 51.5569,-12.45718 5.30667,-0.28911 10.215,-0.424 14.301,-0.47541 6.93849,-0.09 11.48707,0.0514 11.48707,0.0514 l 0.10921,0.424 z"
     fill="#ffb8b8"
     id="path16"
     inkscape:export-xdpi="96"
     inkscape:export-ydpi="96" />
  <path
     d="m 299.57242,31.381787 -8.83338,-3.5364 c 0,0 18.46975,-20.3341598 44.167,-18.5658998 l -7.22751,-7.95692 c 0,0 17.66676,-7.07268 33.72744,11.4932098 8.44279,9.75966 18.21118,21.23169 24.30075,34.15476 h 9.45994 l -3.94822,8.69355 13.8188,8.69355 -14.18358,-1.56155 a 48.58061,48.58061 0 0 1 0.3849,14.41987 18.65731,18.65731 0 0 1 -6.83212,12.20528 v 0 c 0,0 -10.955,-22.67579 -10.955,-26.21219 v 8.841 c 0,0 -8.83338,-7.95681 -8.83338,-13.26134 l -4.81816,6.18866 -2.40908,-9.72508 -29.71221,9.72508 4.81815,-7.95682 -18.46975,2.65227 7.22751,-9.72509 c 0,0 -20.87883,11.49321 -21.682,21.2183 -0.80293,9.72494 -6.91426,18.94 -6.91426,18.94 0,0 -16.37381,-45.4629 6.91416,-58.72424 z"
     fill="#2f2e41"
     id="path18"
     inkscape:export-xdpi="96"
     inkscape:export-ydpi="96" />
  <path
     d="m 501.14473,348.57348 c -4.812,5.21672 -16.73591,13.07391 -31.19111,21.58 -5.37734,3.1609 -11.10162,6.41815 -16.9415,9.6561 -13.93482,7.72873 -28.525,15.38677 -40.56453,21.5736 -15.663,8.04992 -27.01516,13.60716 -27.01516,13.60716 0,0 -0.97654,-4.89549 -2.55056,-11.15941 -2.10723,-8.384 -5.28095,-19.22224 -8.5896,-24.02135 -0.11564,-0.16705 -0.23128,-0.32123 -0.34691,-0.47541 -0.96368,-1.26565 -1.93379,-2.00445 -2.891,-2.00445 l 47.8113,-29.6364 20.66133,-12.81052 -14.88568,-35.53411 -18.66965,-44.57343 11.26866,-35.85533 11.32646,-36.04167 h 21.22665 c 0,0 7.02845,15.3418 16.01636,36.73553 1.34275,3.19941 2.73043,6.53374 4.14384,9.97729 18.48978,44.97174 41.54103,107.77158 31.1911,118.9824 z"
     fill="#d0cde1"
     id="path20"
     inkscape:export-xdpi="96"
     inkscape:export-ydpi="96" />
  <path
     d="m 339.56123,432.1053 c -11.8083,14.62221 -60.55768,-16.01 -77.60838,-27.43277 -3.7134,-2.48629 -5.92344,-4.06031 -5.92344,-4.06031 l 15.59879,-20.80265 4.94047,-6.58515 c 0,0 4.42008,2.345 10.95382,6.16115 0.23771,0.14132 0.47541,0.28268 0.71955,0.424 5.63433,3.30865 12.70775,7.63235 19.8454,12.45718 9.84882,6.66224 19.80685,14.26248 26.225,21.41938 6.27674,6.99633 9.16135,13.56862 5.24879,18.41917 z"
     fill="#ffb8b8"
     id="path22"
     inkscape:export-xdpi="96"
     inkscape:export-ydpi="96" />
  <path
     d="m 287.52249,379.38557 a 30.69786,30.69786 0 0 0 -5.20385,0.424 c -14.77,2.5377 -19.12586,15.90716 -20.36579,24.863 a 46.15393,46.15393 0 0 0 -0.44973,8.26194 l -13.04823,-10.03512 -4.75413,-3.65556 c -11.44213,-3.98965 -21.63787,-11.07589 -30.478,-19.43422 a 153.2131,153.2131 0 0 1 -20.52639,-24.34261 214.67612,214.67612 0 0 1 -15.88148,-27.24 20.03409,20.03409 0 0 1 -0.27625,-16.99291 l 16.15773,-36.00951 23.61659,-52.62982 q 0.26016,-1.87914 0.57176,-3.67482 c 4.68351,-26.85455 17.23061,-38.77849 17.23061,-38.77849 h 9.58543 l 6.41168,38.77849 7.9664,48.17759 -5.58293,18.20715 -12.90044,42.04855 12.32869,13.38877 z"
     fill="#d0cde1"
     id="path24"
     inkscape:export-xdpi="96"
     inkscape:export-ydpi="96" />
  <path
     d="m 298.37117,267.136 8.19442,9.56022 c 3.04445,-0.58046 6.22372,-1.26259 9.49825,-2.02864 l -2.35359,-7.53158 5.75478,6.71392 c 34.69082,-8.53229 77.68983,-25.12082 77.68983,-25.12082 0,0 -46.42186,3.40385 -81.08294,-4.16863 -15.33585,-3.35046 -31.1145,4.25182 -37.4077,18.63269 -3.65786,8.35873 -3.08339,15.60054 9.88993,15.60054 a 85.688,85.688 0 0 0 13.07567,-1.2299 z"
     fill="#bd92cc"
     id="path26"
     inkscape:export-xdpi="96"
     inkscape:export-ydpi="96" />
  <path
     d="m 485.17977,424.26736 v 3.8997 a 8.57062,8.57062 0 0 1 -0.58465,3.12875 8.79588,8.79588 0 0 1 -0.62316,1.2849 8.633,8.633 0 0 1 -7.42037,4.2145 H 189.66396 a 8.6329,8.6329 0 0 1 -7.42033,-4.2145 8.79181,8.79181 0 0 1 -0.62316,-1.2849 8.57062,8.57062 0 0 1 -0.58465,-3.12875 v -3.8997 a 8.62584,8.62584 0 0 1 8.62814,-8.62814 h 16.53675 v -1.81816 a 0.35918,0.35918 0 0 1 0.35977,-0.35977 h 8.62818 a 0.35918,0.35918 0 0 1 0.35977,0.35977 v 1.81816 h 5.39016 v -1.81816 a 0.35918,0.35918 0 0 1 0.35977,-0.35977 h 8.62819 a 0.35918,0.35918 0 0 1 0.35977,0.35977 v 1.81816 h 5.39659 v -1.81816 a 0.35918,0.35918 0 0 1 0.35977,-0.35977 h 8.62814 a 0.35919,0.35919 0 0 1 0.35978,0.35977 v 1.81816 h 5.39019 v -1.81816 a 0.35918,0.35918 0 0 1 0.35977,-0.35977 h 8.62815 a 0.35918,0.35918 0 0 1 0.35977,0.35977 v 1.81816 h 5.3902 v -1.81816 a 0.35918,0.35918 0 0 1 0.35977,-0.35977 h 8.62821 a 0.35918,0.35918 0 0 1 0.35977,0.35977 v 1.81816 h 5.39662 v -1.81816 a 0.35919,0.35919 0 0 1 0.35978,-0.35977 h 8.62814 a 0.35919,0.35919 0 0 1 0.35978,0.35977 v 1.81816 h 5.39019 v -1.81816 a 0.35918,0.35918 0 0 1 0.35977,-0.35977 h 67.58612 a 0.35919,0.35919 0 0 1 0.35978,0.35977 v 1.81816 h 5.39658 v -1.81816 a 0.35918,0.35918 0 0 1 0.35977,-0.35977 h 8.62819 a 0.36334,0.36334 0 0 1 0.35977,0.35977 v 1.81816 h 5.39016 v -1.81816 a 0.35918,0.35918 0 0 1 0.35977,-0.35977 h 8.62815 a 0.35919,0.35919 0 0 1 0.35981,0.35977 v 1.81816 h 5.39015 v -1.81816 a 0.35919,0.35919 0 0 1 0.35978,-0.35977 h 8.62814 a 0.35919,0.35919 0 0 1 0.35978,0.35977 v 1.81816 h 5.39662 v -1.81816 a 0.35918,0.35918 0 0 1 0.35977,-0.35977 h 8.62815 a 0.35786,0.35786 0 0 1 0.35334,0.35977 v 1.81816 h 5.39663 v -1.81816 a 0.35918,0.35918 0 0 1 0.35977,-0.35977 h 8.62815 a 0.35918,0.35918 0 0 1 0.35977,0.35977 v 1.81816 h 5.39019 v -1.81816 a 0.35919,0.35919 0 0 1 0.35978,-0.35977 h 8.62814 a 0.35918,0.35918 0 0 1 0.35977,0.35977 v 1.81816 h 25.1649 a 8.62585,8.62585 0 0 1 8.62813,8.62814 z"
     fill="#3f3d56"
     id="path28"
     inkscape:export-xdpi="96"
     inkscape:export-ydpi="96" />
  <path
     d="M 462.07987,260.0373 H 355.14804 v -2.204 h -48.487 v 2.204 H 199.28837 a 7.23313,7.23313 0 0 0 -7.23313,7.23314 V 413.693 a 7.23315,7.23315 0 0 0 7.23313,7.23316 h 262.7915 A 7.23315,7.23315 0 0 0 469.313,413.693 V 267.27044 a 7.23313,7.23313 0 0 0 -7.23313,-7.23314 z"
     fill="#3f3d56"
     id="path30"
     inkscape:export-xdpi="96"
     inkscape:export-ydpi="96" />
  <circle
     cx="330.89453"
     cy="311.15698"
     r="16.06134"
     fill="none"
     stroke="#d0cde1"
     stroke-miterlimit="10"
     stroke-width="2"
     id="circle32"
     inkscape:export-xdpi="96"
     inkscape:export-ydpi="96" />
  <circle
     cx="325.75488"
     cy="316.93906"
     r="16.06134"
     fill="#d0cde1"
     id="circle34"
     inkscape:export-xdpi="96"
     inkscape:export-ydpi="96" />
  <rect
     x="0"
     y="432.46466"
     width="515.04712"
     height="1.0843097"
     fill="#3f3d56"
     id="rect82"
     style="stroke-width:0.542156"
     inkscape:export-xdpi="96"
     inkscape:export-ydpi="96" />
  <path
     d="m 383.05672,89.026177 h -1.19858 L 358.53951,108.3016 c -22.46549,-9.769733 -38.95915,0 -38.95915,0 l -24.45612,-18.483283 -2.46598,0.28771 a 45.208267,41.976855 0 0 0 90.39846,-1.07985 z m -45.27646,26.668743 c -8.79508,0 -15.92492,-1.65509 -15.92492,-3.69666 0,-2.04157 7.12984,-3.69666 15.92492,-3.69666 8.79507,0 15.92491,1.65507 15.92491,3.69666 0,2.04159 -7.12984,3.69666 -15.92491,3.69666 z"
     fill="#72351c"
     id="path55"
     style="stroke-width:0.40808"
     inkscape:export-xdpi="96"
     inkscape:export-ydpi="96" />
  <path
     style="fill:#2f2e41;fill-opacity:1;stroke-width:0.923076"
     d="m 328.18078,129.32642 c -3.11623,-0.6777 -8.10084,-2.4025 -11.07691,-3.83291 -7.1144,-3.41943 -16.78762,-13.00987 -19.98701,-19.81598 -2.6135,-5.55972 -4.67267,-15.587518 -3.20084,-15.587518 0.47672,0 5.91768,3.863703 12.09102,8.586006 6.17334,4.722302 11.72244,8.887652 12.33133,9.256332 0.60888,0.36868 3.60732,-0.17195 6.66318,-1.2014 8.9246,-3.00648 19.93033,-2.49926 32.495,1.4976 0.96589,0.30725 5.45756,-2.82241 12.67465,-8.831321 6.14822,-5.118969 11.45208,-9.307217 11.78635,-9.307217 1.47139,0 -0.80098,10.210748 -3.49045,15.684138 -5.9959,12.20238 -19.1986,21.76726 -33.08198,23.96673 -7.51162,1.19002 -10.11488,1.1273 -17.20434,-0.41446 z m 21.80848,-14.59622 c 4.54319,-1.55471 4.66819,-3.85404 0.29269,-5.38391 -4.48209,-1.56714 -20.82737,-1.55837 -25.43527,0.0136 -3.4231,1.16781 -4.46801,3.07599 -2.38827,4.36134 3.6123,2.23253 21.98743,2.90592 27.53085,1.00892 z"
     id="path97"
     inkscape:export-xdpi="96"
     inkscape:export-ydpi="96" />
</svg>
