<svg xmlns="http://www.w3.org/2000/svg" viewBox="0 0 3000 2727" width="3000" height="2727"><g transform="translate(1467.2727272727273 694.090909090909) rotate(0.0 659.3181818181816 520.2272727272727) scale(1.3628274050732692 1.3628040350906858)"><svg width="967.574" height="763.466" viewBox="0 0 967.574 763.466"><path d="M54.004 2h859.567c28.702 0 52.004 23.302 52.004 52.004v707.463H2V54.004C2 25.302 25.302 2 54.004 2z" fill="#fff"/><g fill="#190e64"><path d="M965.574 763.466H2a2 2 0 0 1-2-2V54.003C0 24.226 24.227 0 54.004 0H913.57c29.777 0 54.004 24.226 54.004 54.003v707.463a2 2 0 0 1-2 2zM4 759.466h959.574V54.003C963.574 26.431 941.142 4 913.57 4H54.004C26.432 4 4 26.432 4 54.003z"/><path d="M965.574 59.247H2a2 2 0 0 1 0-4h963.574a2 2 0 0 1 0 4z"/><circle cx="74.972" cy="29.409" r="11.536"/><path d="M74.972 42.944c-7.463 0-13.535-6.072-13.535-13.536s6.072-13.536 13.535-13.536 13.536 6.072 13.536 13.536-6.072 13.536-13.536 13.536zm0-23.071c-5.258 0-9.535 4.278-9.535 9.536s4.277 9.536 9.535 9.536 9.536-4.278 9.536-9.536-4.278-9.536-9.536-9.536z"/><circle cx="118.533" cy="29.409" r="11.536"/><path d="M118.533 42.944c-7.464 0-13.536-6.072-13.536-13.536s6.072-13.536 13.536-13.536 13.536 6.072 13.536 13.536-6.072 13.536-13.536 13.536zm0-23.071c-5.258 0-9.536 4.278-9.536 9.536s4.278 9.536 9.536 9.536 9.536-4.278 9.536-9.536-4.278-9.536-9.536-9.536z"/><circle cx="162.094" cy="29.409" r="11.536"/><path d="M162.095 42.944c-7.464 0-13.536-6.072-13.536-13.536s6.072-13.536 13.536-13.536 13.535 6.072 13.535 13.536-6.072 13.536-13.535 13.536zm0-23.071c-5.258 0-9.536 4.278-9.536 9.536s4.278 9.536 9.536 9.536 9.535-4.278 9.535-9.536-4.277-9.536-9.535-9.536zM95.802 763.466a2 2 0 0 1-2-2V57.247a2 2 0 0 1 4 0v704.22a2 2 0 0 1-2 2z"/></g><path d="M228.527 352.711h141.129v33.634H228.527z" fill="#fff"/><path d="M369.656 388.344H228.527a2 2 0 0 1-2-2V352.71a2 2 0 0 1 2-2h141.129a2 2 0 0 1 2 2v33.634a2 2 0 0 1-2 2zm-139.129-4h137.129V354.71H230.527zm-79.968-190.949h141.129v33.634H150.559z" fill="#190e64"/><path d="M291.688 229.029h-141.13a2 2 0 0 1-2-2v-33.634a2 2 0 0 1 2-2h141.13a2 2 0 0 1 2 2v33.634a2 2 0 0 1-2 2zm-139.13-4h137.13v-29.634h-137.13zM589.5 193.395h88.366v33.634H589.5z" fill="#190e64"/><path d="M677.866 229.029H589.5a2 2 0 0 1-2-2v-33.634a2 2 0 0 1 2-2h88.366a2 2 0 0 1 2 2v33.634a2 2 0 0 1-2 2zm-86.366-4h84.366v-29.634H591.5z" fill="#190e64"/><path d="M323.971 193.395h234.29v33.634h-234.29z" fill="#fff"/><path d="M558.262 229.029h-234.29a2 2 0 0 1-2-2v-33.634a2 2 0 0 1 2-2h234.29a2 2 0 0 1 2 2v33.634a2 2 0 0 1-2 2zm-232.29-4h230.29v-29.634h-230.29z" fill="#190e64"/><path d="M238.925 466.002h-88.366v-33.634h88.366z" fill="#fff"/><path d="M238.925 468.003h-88.366a2 2 0 0 1-2-2v-33.634a2 2 0 0 1 2-2h88.366a2 2 0 0 1 2 2v33.634a2 2 0 0 1-2 2zm-86.366-4h84.366v-29.634h-84.366zm351.895 1.999h-234.29v-33.634h234.29z" fill="#190e64"/><path d="M504.454 468.003H270.163a2 2 0 0 1-2-2v-33.634a2 2 0 0 1 2-2h234.291a2 2 0 0 1 2 2v33.634a2 2 0 0 1-2 2zm-232.291-4h230.291v-29.634H272.163zm215.534-190.95h87.652v33.634h-87.652z" fill="#190e64"/><path d="M575.349 308.687h-87.651a2 2 0 0 1-2-2v-33.634a2 2 0 0 1 2-2h87.651a2 2 0 0 1 2 2v33.634a2 2 0 0 1-2 2zm-85.651-4h83.651v-29.634h-83.651zm-261.171-31.634h234.29v33.634h-234.29z" fill="#190e64"/><path d="M462.817 308.687h-234.29a2 2 0 0 1-2-2v-33.634a2 2 0 0 1 2-2h234.29a2 2 0 0 1 2 2v33.634a2 2 0 0 1-2 2zm-232.29-4h230.29v-29.634h-230.29z" fill="#190e64"/><path d="M228.527 512.026h141.129v33.634H228.527z" fill="#fff"/><path d="M369.656 547.66H228.527a2 2 0 0 1-2-2v-33.634a2 2 0 0 1 2-2h141.129a2 2 0 0 1 2 2v33.634a2 2 0 0 1-2 2zm-139.129-4h137.129v-29.634H230.527zm408.884 2.001h-234.29v-33.634h234.29z" fill="#190e64"/><path d="M639.41 547.66H405.12a2 2 0 0 1-2-2v-33.634a2 2 0 0 1 2-2h234.29a2 2 0 0 1 2 2v33.634a2 2 0 0 1-2 2zm-232.29-4h230.29v-29.634H407.12z" fill="#190e64"/><path d="M462.818 625.319h-234.29v-33.634h234.29z" fill="#fff"/><path d="M462.817 627.318h-234.29a2 2 0 0 1-2-2v-33.634a2 2 0 0 1 2-2h234.29a2 2 0 0 1 2 2v33.634a2 2 0 0 1-2 2zm-232.29-4h230.29v-29.634h-230.29z" fill="#190e64"/><circle cx="48.901" cy="289.87" fill="#ec535b" r="16.817"/><path d="M48.9 308.687c-10.375 0-18.816-8.441-18.816-18.817s8.441-18.817 18.816-18.817 18.817 8.441 18.817 18.817-8.441 18.817-18.817 18.817zm0-33.634c-8.17 0-14.816 6.647-14.816 14.817s6.646 14.817 14.816 14.817 14.817-6.647 14.817-14.817-6.647-14.817-14.817-14.817z" fill="#ec535b"/><circle cx="48.901" cy="449.185" fill="#ec535b" r="16.817"/><path d="M48.9 468.003c-10.375 0-18.816-8.441-18.816-18.817s8.441-18.817 18.816-18.817 18.817 8.441 18.817 18.817-8.441 18.817-18.817 18.817zm0-33.634c-8.17 0-14.816 6.647-14.816 14.817s6.646 14.817 14.816 14.817 14.817-6.647 14.817-14.817-6.647-14.817-14.817-14.817z" fill="#ec535b"/><circle cx="48.901" cy="210.212" fill="#ec535b" r="16.817"/><path d="M48.9 229.029c-10.375 0-18.816-8.441-18.816-18.817s8.441-18.817 18.816-18.817 18.817 8.441 18.817 18.817-8.441 18.817-18.817 18.817zm0-33.634c-8.17 0-14.816 6.647-14.816 14.817s6.646 14.817 14.816 14.817 14.817-6.647 14.817-14.817-6.647-14.817-14.817-14.817z" fill="#ec535b"/></svg></g><g transform="translate(366.8181818181818 1040.4545454545453) rotate(0.0 643.6363636363636 536.5909090909091) scale(1.363379285762565 1.3630336499004485)"><svg width="944.178" height="787.348" viewBox="0 0 944.178 787.348"><path d="M657.52 784.818c-1.035-109.765-17.965-241.994-49.018-295.525-38.797-66.882-16.031-152.551 50.851-191.349 66.878-38.796 152.55-16.031 191.349 50.851 47.423 81.751 69.852 209.086 80.316 284.732 6.986 50.5 10.726 102.071 11.16 151.291z" fill="#fff"/><path d="M942.178 786.817H657.52a2 2 0 0 1-2-1.981c-.972-103.062-16.642-239.193-48.747-294.541-39.288-67.728-16.151-154.793 51.576-194.082 67.73-39.29 154.793-16.151 194.082 51.577 35.793 61.702 62.899 157.745 80.568 285.461 6.975 50.427 10.736 101.415 11.179 151.548a2.003 2.003 0 0 1-2 2.018zm-282.679-4h280.659c-.523-49.311-4.264-99.438-11.122-149.017-17.597-127.2-44.534-222.753-80.064-284.003-38.185-65.821-122.798-88.307-188.615-50.124-65.82 38.182-88.306 122.794-50.124 188.615 32.264 55.619 48.108 191.2 49.267 294.529z" fill="#190e64"/><path d="M850.702 348.794c23.214 35.554 63.961 121.503 76.251 160.348-25.625 57.111-174.893 105.23-295.512 86.774 0 0-4.771-58.603-19.174-77.989" fill="#ec535b"/><path d="M686.575 601.923c-19.14 0-37.786-1.329-55.438-4.03a1.999 1.999 0 0 1-1.69-1.814c-.048-.58-4.89-58.254-18.787-76.958a2 2 0 0 1 3.211-2.385c13.412 18.05 18.537 67.723 19.425 77.438 55.886 8.267 121.731 2.738 180.942-15.22 56.912-17.261 98.146-43.361 110.573-69.941-12.722-39.687-52.861-124.015-75.785-159.125a2 2 0 1 1 3.35-2.186c23.206 35.542 63.949 121.222 76.483 160.838a2.01 2.01 0 0 1-.082 1.422c-12.5 27.857-54.884 55.079-113.378 72.819-41.566 12.606-86.393 19.142-128.824 19.143z" fill="#ec535b"/><path d="M758.108 492.063c23.374 150.848 14.284 292.755 14.284 292.755H202.564c-10.714-88.979-11.046-162.332 24.236-312.271-21.254-32.591-76.1-192.127-12.929-223.106 97.619-45.35 174.968-4.923 226.307 26.582L589.5 298.574c60.64.527 185.202-69.762 261.201 50.221" fill="#ec535b"/><path d="M772.392 786.817H202.565a2 2 0 0 1-1.985-1.761c-11.063-91.877-10.373-165.46 24.081-312.143-8.542-13.511-21.89-45.661-31.359-82.151-8.1-31.208-15.879-75.223-6.949-107.682 4.722-17.161 13.684-29.083 26.639-35.437 43.983-20.432 87.092-25.557 131.82-15.687 37.521 8.28 69.604 25.925 96.068 42.148l148.779 22.469.539.002c14.246 0 31.846-3.822 52.175-8.237 63.961-13.89 151.555-32.914 210.019 59.384a2.001 2.001 0 0 1-3.379 2.141c-56.969-89.937-142.987-71.256-205.79-57.616-20.553 4.464-38.35 8.329-53.025 8.329-.239 0-.476 0-.714-.003a1.89 1.89 0 0 1-.281-.022L439.882 278a1.997 1.997 0 0 1-.747-.273c-59.954-36.792-133.503-68.708-224.419-26.473-11.844 5.809-20.102 16.88-24.506 32.888-16.063 58.384 22.547 163.206 38.268 187.312.299.458.397 1.019.272 1.551-34.29 145.716-35.215 219.044-24.409 309.813h566.165c.945-17.273 7.261-150.837-14.372-290.449a2.001 2.001 0 0 1 1.67-2.283 1.998 1.998 0 0 1 2.283 1.67c23.14 149.337 14.394 291.768 14.303 293.189a2 2 0 0 1-1.996 1.872z" fill="#ec535b"/><path d="M684.995 41.261C670.14 26.835 645.406 9.372 617.666 4.509 567.594-4.267 506.514 9.781 494.88 49.773c-19.283-7.723-48.587 15.425-58.206 37.52-20.412 46.886-9.45 97.006 27.003 123.335 17.159 12.394 62.503-81.175 72.61-104.57a54.89 54.89 0 0 0 3.803-12.957c14.687 12.09 35.679 21.616 59.891 25.86 22.694 3.978 44.317 2.639 61.699-2.793 18.466 2.974 36.79 3.267 50.605-.432 31.249-8.365 39.776-49.489 39.776-49.489-19.936 15.969-63.288 1.743-63.288 1.743 16.157 1.154 28.197-12.456 28.197-12.456-11.294.871-20.048-2.692-31.974-14.274z" fill="#190e64"/><path d="M467.137 213.757c-1.69 0-3.241-.503-4.632-1.508-18.29-13.21-30.603-32.281-35.608-55.152-4.989-22.793-2.242-47.207 7.942-70.603 4.937-11.337 14.721-22.847 26.174-30.787 11.875-8.233 23.345-11.202 32.574-8.495 13.267-39.341 73.147-53.66 124.424-44.673 33.021 5.788 58.818 28.003 68.378 37.287 11.168 10.846 19.415 14.563 30.427 13.714a2.02 2.02 0 0 1 1.944 1.103 2.001 2.001 0 0 1-.293 2.216c-.398.45-7.796 8.673-18.889 11.909 13.775 3.065 38.123 6.417 51.231-4.082a2 2 0 0 1 3.208 1.967c-.358 1.728-9.146 42.429-41.217 51.015-13.07 3.499-31.159 3.692-50.977.548-18.202 5.592-40.264 6.558-62.19 2.714-22.369-3.92-42.894-12.477-58.209-24.215a57.268 57.268 0 0 1-3.303 10.135c-.43.996-44.503 99.962-68.358 106.531a9.898 9.898 0 0 1-2.627.375zm19.659-163.464c-17.262 0-40.022 18.809-48.289 37.798-20.186 46.365-9.6 94.957 26.34 120.916 1.083.781 2.311.946 3.854.519 17.928-4.937 54.467-78.15 65.749-104.261a52.966 52.966 0 0 0 3.665-12.484 2 2 0 0 1 3.246-1.223c15.027 12.371 35.968 21.403 58.965 25.434 21.489 3.766 43.068 2.796 60.757-2.732.295-.092.609-.115.915-.065 19.453 3.133 37.129 2.995 49.769-.389 23.316-6.242 33.608-32.042 36.988-43.004-21.706 11.623-58.918-.356-60.605-.91a2 2 0 0 1-1.338-2.286 1.993 1.993 0 0 1 2.104-1.609c9.974.712 18.359-4.667 22.906-8.396-9.739-.546-18.056-5.033-28.22-14.903-7.251-7.042-33.46-30.463-66.282-36.216-25.359-4.445-52.643-2.886-74.848 4.277-17.197 5.547-39.081 16.917-45.673 39.575a1.994 1.994 0 0 1-1.044 1.239 1.995 1.995 0 0 1-1.619.059c-2.276-.912-4.747-1.336-7.34-1.336z" fill="#190e64"/><path d="m465.892 176.661-25.714 99.362c6.644 33.516 45.757 72.772 96.064 73.741 49.854.961 63.378-24.147 53.257-51.19l5.145-18.669" fill="#fff"/><path d="M538.992 351.791c-.915 0-1.841-.009-2.787-.027-49.87-.961-90.929-39.738-97.988-75.352a1.997 1.997 0 0 1 .025-.89l25.713-99.362a2 2 0 0 1 3.874 1.002l-25.598 98.916c7.009 33.966 46.315 70.766 94.051 71.687 24.27.468 41.299-5.288 49.336-16.643 5.876-8.3 6.589-19.61 2.01-31.847a2.004 2.004 0 0 1-.055-1.232l5.146-18.669a2 2 0 0 1 3.855 1.062l-4.975 18.05c4.805 13.284 3.848 25.674-2.717 34.947-5.982 8.452-19.489 18.357-49.89 18.358z" fill="#190e64"/><path d="M491.498 228.469c17.221 38.779 65.891 50.145 101.293 52.141 75.926 4.28 122.735-49.853 122.688-125.519-.041-67.529-59.552-120.758-129.074-118.942S461.953 94.162 463.717 161.667c.173 6.629.894 13.118 2.106 19.433" fill="#fff"/><path d="M601.105 282.846c-2.776 0-5.586-.08-8.426-.24-30.388-1.713-84.177-10.919-103.009-53.327a2 2 0 0 1 3.657-1.623c17.969 40.465 70.102 49.294 99.577 50.956 33.665 1.906 62.771-7.814 84.202-28.084 23.48-22.208 36.398-56.102 36.374-95.436-.019-30.491-12.438-59.366-34.973-81.306-24.183-23.544-57.696-36.534-92.05-35.638-33.101.864-63.891 14.191-86.698 37.524-22.791 23.317-34.882 53.839-34.043 85.942.167 6.385.863 12.814 2.071 19.108a2 2 0 1 1-3.928.754 122.01 122.01 0 0 1-2.142-19.758c-.867-33.194 11.627-64.746 35.181-88.843 23.539-24.082 55.308-37.835 89.455-38.727 35.406-.924 69.993 12.479 94.943 36.771 23.313 22.699 36.163 52.59 36.183 84.169.025 40.446-13.338 75.372-37.626 98.345-20.434 19.326-47.524 29.412-78.749 29.412z" fill="#190e64"/><path d="M688.772 67.99s43.351 14.227 63.287-1.743c0 0-8.527 41.124-39.776 49.489-22.297 5.969-56.342 1.569-83.769-7.782-28.194-9.612-68.931-18.275-99.921 50.638-4.948 11.002-12.155 6.69-14.244-2.497-4.341-19.093-26.495-30.24-44.576-29.819-8.524-11.702 9.822-45.338 29.975-61.5 43.972-35.265 98.101-39.797 138.579-29.045s50.445 32.258 50.445 32.258z" fill="#190e64"/><path d="M521.707 167.123c-.214 0-.415-.011-.602-.03-3.921-.392-7.338-4.534-8.707-10.554-4.087-17.975-25.295-28.656-42.578-28.263a2.012 2.012 0 0 1-1.663-.822c-4.403-6.045-2.922-17.403 4.066-31.161 6.443-12.685 16.265-25.05 26.272-33.077 20.854-16.725 44.914-27.555 71.508-32.188 23.074-4.021 46.876-3.062 68.837 2.771 36.943 9.813 49.016 28.352 51.322 32.53 5.826 1.767 43.197 12.332 60.646-1.642a1.998 1.998 0 0 1 2.295-.144 1.997 1.997 0 0 1 .913 2.111c-.358 1.728-9.146 42.429-41.217 51.015-21.096 5.647-54.434 2.577-84.932-7.821-33.85-11.541-69.081-13.523-97.452 49.565-2.938 6.532-6.514 7.71-8.71 7.71zm-50.841-42.858c18.649.05 40.989 11.842 45.433 31.387.951 4.182 3.091 7.25 5.204 7.461 1.728.163 3.661-1.773 5.266-5.341 14.073-31.295 31.168-49.568 52.262-55.862 17.833-5.32 35.348-.888 50.13 4.151 29.799 10.16 62.226 13.2 82.605 7.743 23.316-6.242 33.608-32.042 36.988-43.004-21.706 11.623-58.918-.356-60.605-.91a1.998 1.998 0 0 1-1.188-1.055c-.146-.304-10.309-20.854-49.146-31.17C590.278 25.038 539.131 35.756 501 66.336c-19.963 16.011-35.966 47.145-30.132 57.929z" fill="#190e64"/><path d="M502.396 159.17c.73-4.236.642-8.686-.397-13.135-4.156-17.798-21.954-28.856-39.751-24.7-17.798 4.156-28.856 21.954-24.7 39.751 4.156 17.798 21.954 28.856 39.751 24.7" fill="#fff"/><g fill="#190e64"><path d="M469.772 188.657c-15.935 0-30.396-10.946-34.172-27.116-2.132-9.128-.581-18.54 4.366-26.501s12.698-13.521 21.826-15.652c18.842-4.4 37.754 7.35 42.154 26.192a34.867 34.867 0 0 1 .42 13.93 2 2 0 0 1-3.942-.68 30.91 30.91 0 0 0-.373-12.341c-3.899-16.695-20.654-27.104-37.35-23.207-8.088 1.889-14.956 6.813-19.339 13.868-4.384 7.054-5.758 15.394-3.869 23.481 3.9 16.696 20.657 27.105 37.35 23.207a2 2 0 1 1 .91 3.895 35.09 35.09 0 0 1-7.982.923z"/><path d="M477.998 174.83c-.289 0-.556-.016-.797-.041-3.077-.318-5.847-2.503-7.056-5.566-1.187-3.006-.671-6.208 1.379-8.564.974-1.12 2.225-2.175 3.548-3.293 4.877-4.117 9.482-8.006 3.633-16.036-3.935-5.4-11.288-5.301-16.521-2.41-5.055 2.793-9.724 9.142-6.247 17.84a2 2 0 0 1-3.715 1.484c-4.158-10.404 1.035-18.961 8.027-22.825 6.769-3.739 16.39-3.718 21.688 3.555 8.043 11.041.625 17.303-4.284 21.448-1.203 1.016-2.34 1.975-3.111 2.862-1.515 1.742-.978 3.707-.676 4.471.667 1.69 2.138 2.89 3.746 3.056 2.219.23 4.622-1.425 6.752-4.662a2 2 0 1 1 3.342 2.2c-3.591 5.457-7.374 6.482-9.708 6.482zm131.188 5.23a2 2 0 0 1-1.994-2.185l1.891-20.351a1.995 1.995 0 0 1 2.176-1.806 2 2 0 0 1 1.807 2.176l-1.891 20.351a2 2 0 0 1-1.989 1.815zm68.628-.224a2 2 0 0 1-1.994-2.185l1.891-20.351a1.993 1.993 0 0 1 2.176-1.806 2 2 0 0 1 1.807 2.176l-1.891 20.351a2 2 0 0 1-1.989 1.815zm-16.383 37.298a2.001 2.001 0 0 1-1.329-3.495c7.28-6.469 7.825-12.629 5.135-15.863-3.371-4.053-11.93-4.156-21.766 3.492a1.999 1.999 0 1 1-2.455-3.157c12.395-9.639 22.837-8.255 27.296-2.893 3.923 4.716 3.727 13.166-5.554 21.411a1.992 1.992 0 0 1-1.327.505zm-54.09 31.851c-9.578 0-18.423-3.861-23.983-10.713-5.721-7.049-7.094-15.974-3.766-24.486a2 2 0 0 1 3.725 1.456c-2.788 7.134-1.642 14.609 3.146 20.51 5.802 7.15 15.854 10.515 26.215 8.788a2 2 0 1 1 .658 3.946c-2.014.336-4.021.5-5.995.5z"/></g><path d="M329.669 513.755c-42.619 56.928-56.833 206.883-41.427 248.244a136.854 136.854 0 0 1 9.909 23.349l-291.094-.531c-2.207-15.56-3.263-30.796-4.012-46.42-11.226-174.869 68.57-416.544 210.826-488.957m74.579 513.093.003.008s0-.004-.003-.008zm-.94-1.912.024.045-.024-.045z" fill="#fff"/><path d="M298.151 787.349h-.004l-291.094-.531a2.001 2.001 0 0 1-1.977-1.719c-2.392-16.86-3.379-33.021-4.029-46.605-5.728-89.22 11.766-192.648 47.997-283.734 39.772-99.989 97.987-173.539 163.92-207.101a2 2 0 1 1 1.814 3.564C75.177 322.285-6.376 560.431 5.041 738.27c.625 13.061 1.561 28.472 3.757 44.551l286.586.523a135.769 135.769 0 0 0-8.391-19.437 2.092 2.092 0 0 1-.492-.923l-.021-.038a1.915 1.915 0 0 1-.112-.249c-.144-.385-.285-.78-.423-1.184l-.176.094.174-.099-.177.093a2.033 2.033 0 0 1-.211-1.267c-6.96-21.914-7.146-68.198-.341-116.897 8.041-57.539 23.66-105.244 42.854-130.881a1.996 1.996 0 0 1 2.799-.402 1.998 1.998 0 0 1 .402 2.799c-43.224 57.736-55.696 206.902-41.2 246.222a139.28 139.28 0 0 1 9.987 23.567 2.002 2.002 0 0 1-1.906 2.606z" fill="#190e64"/><path d="M265.294 730.572c4.455 10.939 10.682 17.945 19.735 25.628 5.601 4.754 25.724 16.729 55.972 14.928 45.619-2.707 92.606-35.188 135.881-93.931 101.352-126.767 277.842-23.288 251.219 107.62H7.057" fill="#fff"/><path d="M728.102 786.817H7.057a2 2 0 0 1 0-4h719.4c11.402-59.951-21.148-120.62-79.615-147.97-46.987-21.98-115.898-22.066-168.397 43.599-43.59 59.174-91.093 91.935-137.325 94.678-36.264 2.16-56.54-14.682-57.385-15.399-8.754-7.429-15.555-14.762-20.293-26.398a2 2 0 0 1 3.705-1.507c4.446 10.92 10.634 17.607 19.176 24.857 6.742 5.722 26.832 16.107 54.56 14.456 45.008-2.671 91.479-34.872 134.39-93.121 53.998-67.542 124.898-67.41 173.266-44.786 28.126 13.157 51.843 34.957 66.781 61.386 16.154 28.578 21.252 60.601 14.743 92.605a2 2 0 0 1-1.96 1.602z" fill="#190e64"/><path d="M785.949 784.818c6.508-19.565 12.367-40.168 12.947-44.031 6.546-43.61-40.619-57.226-54.932-12.292-2.244 7.046-23.736 38.567-23.736 38.567-20.801-8.554-43.324 1.654-57.449 17.756H785.95z" fill="#fff"/><path d="M785.949 786.818H662.778a2.002 2.002 0 0 1-1.504-3.321c12.47-14.213 35.034-27.449 58.195-18.88 6.483-9.569 20.903-31.438 22.589-36.73 7.613-23.903 24.167-31.539 37.206-28.506 12.969 3.019 25.263 17.355 21.608 41.702-.64 4.265-6.776 25.574-13.026 44.365a2 2 0 0 1-1.897 1.369zm-118.537-4.001h117.093c6.369-19.285 11.886-38.817 12.413-42.327 3.277-21.837-7.323-34.598-18.561-37.213-11.248-2.614-25.649 4.354-32.488 25.825-2.306 7.24-23.104 37.789-23.989 39.086a2.002 2.002 0 0 1-2.413.723c-19.938-8.199-39.751 1.754-52.055 13.906z" fill="#190e64"/><path d="M657.521 632.761c38.893-9.046 75.38-6.196 83.391 4.771 6.914 9.465 19.355 72.118 21.603 83.581 6.748 34.414-49.119 47.154-58.131 15.722-2.766-9.647-13.854-55.671-13.854-55.671" fill="#fff"/><path d="M730.265 756.791c-11.908 0-23.832-5.551-27.805-19.403-2.745-9.579-13.422-53.873-13.875-55.754a2 2 0 1 1 3.889-.937c.11.46 11.109 46.092 13.832 55.589 4.292 14.968 19.742 18.531 32.278 15.513 13.265-3.196 25.201-13.805 21.967-30.3-6.954-35.475-16.189-75.852-21.255-82.786-6.91-9.46-41.236-13.327-81.322-4.002a2 2 0 0 1-.906-3.896c39.021-9.077 76.559-6.645 85.459 5.539 6.674 9.137 17.573 62.051 21.95 84.376 3.724 18.99-10.326 31.434-24.955 34.958a39.682 39.682 0 0 1-9.257 1.104z" fill="#190e64"/><path d="M604.162 620.712c32.769.431 69.522 3.936 80.424 19.775 6.646 9.655 7.403 77.512 6.655 89.169-2.244 34.998-59.513 33.081-60.218.391-.217-10.033.193-46.817.193-46.817" fill="#fff"/><path d="M661.021 757.237c-.275 0-.549-.003-.822-.009-14.739-.313-30.781-8.939-31.174-27.139-.215-9.95.188-46.515.192-46.883a2 2 0 0 1 2-1.978h.022a2.002 2.002 0 0 1 1.978 2.022c-.004.367-.406 36.866-.192 46.752.335 15.566 14.365 22.952 27.259 23.226 13.595.303 27.888-6.926 28.963-23.701.877-13.681-.423-79.361-6.307-87.908-8.355-12.136-34.132-18.321-78.804-18.908a2 2 0 0 1 .025-4h.027c46.063.605 72.901 7.357 82.046 20.641 7.274 10.567 7.635 80.583 7.004 90.432-1.216 18.961-17.392 27.453-32.218 27.453z" fill="#190e64"/><path d="M566.662 621.463c24.559-3.931 53.962-.24 63.581 10.278 9.096 9.946 5.824 83.327 4.875 94.97-2.849 34.954-60.076 32.046-60.216-.651-.043-10.035 1.003-46.807 1.003-46.807" fill="#fff"/><path d="M605.097 753.771c-.5 0-.998-.01-1.495-.028-14.731-.568-30.621-9.471-30.699-27.674-.043-9.953.993-46.505 1.004-46.873.031-1.104.962-1.986 2.056-1.942a2 2 0 0 1 1.942 2.056c-.011.367-1.044 36.854-1.002 46.742.066 15.57 13.967 23.197 26.854 23.694 13.676.499 28.003-6.444 29.369-23.196 1.599-19.632 3.325-85.056-4.358-93.458-8.596-9.4-36.313-13.729-61.789-9.653a1.997 1.997 0 0 1-2.291-1.658 1.998 1.998 0 0 1 1.658-2.291c23.755-3.8 54.704-.764 65.373 10.903 10.686 11.684 5.462 95.65 5.394 96.481-1.521 18.651-17.373 26.897-32.015 26.897z" fill="#190e64"/><path d="M476.882 677.198c8.827-12.872 34.6-40.198 40.796-45.991 11.226-10.495 52.406-3.138 59.657 6.072 9.227 11.719-2.005 83.654-4.022 95.16-6.058 34.543-62.773 26.375-59.9-6.197.882-9.996 5.312-46.516 5.312-46.516" fill="#fff"/><path d="M544.534 756.783c-1.716 0-3.421-.112-5.094-.333-14.617-1.923-29.62-12.251-28.021-30.385.875-9.914 5.274-46.215 5.319-46.581a2.006 2.006 0 0 1 2.227-1.744 2 2 0 0 1 1.744 2.227c-.044.364-4.436 36.601-5.306 46.45-1.368 15.511 11.771 24.386 24.558 26.067 13.53 1.78 28.479-3.834 31.381-20.392 4.642-26.469 11.829-84.169 4.421-93.577-3.589-4.558-18.017-9.142-32.161-10.218-11.688-.892-20.637.704-24.559 4.37-6.196 5.792-31.808 32.967-40.513 45.66a2 2 0 1 1-3.299-2.261c8.85-12.904 34.807-40.456 41.079-46.32 6.486-6.064 20.069-6.01 27.595-5.437 13.285 1.011 30.066 5.466 35 11.731 10.786 13.698-3.479 95.914-3.624 96.743-2.968 16.923-17.16 23.999-30.748 23.999z" fill="#190e64"/><path d="M213.871 249.44C108.986 302.646 58.186 395.718 38.304 431.28c13.563 61.11 140.181 138.384 262.042 144.669 0 0 15.394-39.601 36.369-74.465" fill="#ec535b"/><path d="M300.347 577.949c-.035 0-.069 0-.104-.003-56.865-2.933-119.747-21.899-172.521-52.035-50.525-28.853-84.683-64.067-91.369-94.198a2.004 2.004 0 0 1 .206-1.409l.949-1.699c10.545-18.878 28.194-50.475 56.494-84.512 34.435-41.415 74.461-73.861 118.965-96.438a2 2 0 0 1 1.81 3.567C112.066 303.326 62.265 392.483 41 430.554l-.574 1.028c6.843 28.89 40.135 62.79 89.279 90.854 51.806 29.583 113.43 48.293 169.313 51.438 2.906-7.259 17.325-42.409 35.984-73.422a2.001 2.001 0 0 1 3.428 2.062c-20.643 34.309-36.066 73.764-36.22 74.158a2.001 2.001 0 0 1-1.863 1.275z" fill="#ec535b"/><path d="M769.818 597.246a1.999 1.999 0 0 1-1.995-1.9c-1.897-37.956-6.703-69.864-10.943-98.016l-.748-4.971a2 2 0 1 1 3.955-.594l.748 4.969c4.254 28.244 9.076 60.257 10.982 98.412a1.999 1.999 0 0 1-1.999 2.1zm-470.644-11.167a2 2 0 0 1-1.938-2.497c7.93-30.985 22.641-56.694 36.866-81.558l.878-1.534a2 2 0 0 1 3.472 1.986l-.878 1.535c-14.095 24.631-28.668 50.102-36.464 80.563a2 2 0 0 1-1.937 1.504z" fill="#190e64"/></svg></g><g transform="translate(215.45454545454544 2108.181818181818) rotate(0.0 1044.5454545454545 32.72727272727275) scale(1.3636105511650949 1.3517522088006588)"><svg width="1532.029" height="48.422" viewBox="0 0 1532.029 48.422"><path style="fill:#fff" d="M2 2h1528.029v44.422H2z"/><path d="M1530.029 48.422H2a2 2 0 0 1-2-2V2a2 2 0 0 1 2-2h1528.029a2 2 0 0 1 2 2v44.422a2 2 0 0 1-2 2ZM4 44.422h1524.029V4H4v40.422Z" style="fill:#190e64"/></svg></g><g transform="translate(966.8181818181818 1589.9999999999998) rotate(0.0 714.5454545454544 261.1363636363636) scale(1.2410107637947578 1.2410155979135384)"><svg width="1151.554" height="420.843" viewBox="0 0 1151.554 420.843"><g fill="#190e64"><path d="M357.143 418.843H2l17.212-29.597h355.143z"/><path d="M357.143 420.842H2a1.998 1.998 0 0 1-1.728-3.005l17.212-29.597a1.999 1.999 0 0 1 1.729-.995h355.143a1.998 1.998 0 0 1 1.728 3.005l-17.212 29.597a1.998 1.998 0 0 1-1.729.995zm-351.666-4h350.516l14.886-25.597H20.362z"/><path d="M357.143 418.843h549.996L1149.554 2H599.558z"/><path d="M907.139 420.842H357.143a1.998 1.998 0 0 1-1.728-3.005L597.829.995A2 2 0 0 1 599.558 0h549.996a1.998 1.998 0 0 1 1.728 3.005L908.867 419.848a1.996 1.996 0 0 1-1.728.994zm-546.52-4h545.369L1146.077 4H600.708z"/></g><path d="M357.141 420.843a2 2 0 0 1-1.727-3.005l17.212-29.597a2 2 0 0 1 3.457 2.01l-17.212 29.597a1.997 1.997 0 0 1-1.73.995z" fill="#fff"/></svg></g></svg>